<svg width="1366" height="748" xmlns="http://www.w3.org/2000/svg" stroke="null">
 <g stroke="null">
  <title stroke="null">Layer 1</title>
  <g stroke="null" id="svg_1">
   <g stroke="null" transform="matrix(0.471975 0 0 0.335755 2382.51 1303.42)" id="svg_2">
    <path stroke="null" y="318" x="32" height="14" width="200" stroke-miterlimit="1" fill="#ff5500" d="m-5044.7328,-2901.09542l120.28339,155.67207c120.27562,155.65315 360.84633,466.9973 601.52072,648.51318c240.67656,183.49273 481.47674,232.32387 722.407,130.44223c240.92635,-101.87218 482.00698,-364.15213 723.02537,-569.56722c241.02402,-207.35408 482.00572,-362.70497 602.48875,-440.38516l120.49474,-77.6518l-1.2446,1399.99999l-120.42562,-0.10706c-120.41388,-0.10705 -361.25728,-0.32117 -602.09677,-0.53529c-240.83559,-0.21411 -481.68287,-0.42824 -722.51846,-0.64235c-240.83949,-0.21412 -481.68289,-0.42824 -722.52239,-0.64235c-240.83556,-0.21411 -481.68287,-0.42824 -602.09677,-0.53529l-120.42169,-0.10706l1.10632,-1244.45389l0.00001,0zm0,0" id="svg_3"/>
   </g>
  </g>
 </g>

</svg>